<svg aria-hidden="true" style="width:0;height:0;position:absolute;overflow:hidden" xmlns="http://www.w3.org/2000/svg"><defs><symbol id="icon-Vector-22"><path d="M2.787 14.111a1.34 1.34 0 0 1 .348-1.014 1.33 1.33 0 0 1 .982-.43h2.55a1.335 1.335 0 0 1 1.334 1.334v13.333a1.334 1.334 0 0 1-1.334 1.334h-1.44a1.336 1.336 0 0 1-1.329-1.222L2.787 14.113h-.001zM12 14.25c0-.557.347-1.056.85-1.293 1.099-.519 2.972-1.561 3.817-2.969 1.089-1.816 1.294-5.097 1.327-5.848.005-.105.002-.211.016-.315.181-1.302 2.693.219 3.657 1.827.523.872.59 2.018.535 2.913-.059.957-.34 1.882-.615 2.801L21 13.324h7.238a1.319 1.319 0 0 1 1.063.528 1.332 1.332 0 0 1 .22 1.167l-3.58 12.677a1.33 1.33 0 0 1-1.284.971H13.333A1.33 1.33 0 0 1 12 27.333V14.25z"/></symbol><symbol id="icon-Vector-21" viewBox="0 0 577 32"><path d="M2.787 14.111a1.34 1.34 0 0 1 .348-1.014 1.33 1.33 0 0 1 .982-.43h2.55a1.335 1.335 0 0 1 1.334 1.334v13.333a1.334 1.334 0 0 1-1.334 1.334h-1.44a1.336 1.336 0 0 1-1.329-1.222L2.787 14.113h-.001zM12 14.25c0-.557.347-1.056.85-1.293 1.099-.519 2.972-1.561 3.817-2.969 1.089-1.816 1.294-5.097 1.327-5.848.005-.105.002-.211.016-.315.181-1.302 2.693.219 3.657 1.827.523.872.59 2.018.535 2.913-.059.957-.34 1.882-.615 2.801L21 13.324h7.238a1.319 1.319 0 0 1 1.063.528 1.332 1.332 0 0 1 .22 1.167l-3.58 12.677a1.33 1.33 0 0 1-1.284.971H13.333A1.33 1.33 0 0 1 12 27.333V14.25z"/></symbol><symbol id="icon-Youtube"><path d="M28.502 5.972c1.377.352 2.461 1.388 2.829 2.703.669 2.384.669 7.358.669 7.358s0 4.974-.669 7.358c-.368 1.315-1.452 2.308-2.829 2.66C26.007 26.69 16 26.69 16 26.69s-10.007 0-12.502-.639c-1.377-.352-2.461-1.344-2.829-2.66C0 21.007 0 16.033 0 16.033s0-4.974.669-7.358c.368-1.315 1.452-2.351 2.829-2.703C5.994 5.333 16 5.333 16 5.333s10.007 0 12.502.639zm-15.774 5.545v9.032l8.364-4.516-8.364-4.516z"/></symbol><symbol id="icon-Group-1716"><path d="M32 2a2 2 0 1 1-3.999.001A2 2 0 0 1 32 2zM16 30C8.268 30 2 23.732 2 16S8.268 2 16 2s14 6.268 14 14-6.268 14-14 14zm.001-4.667a9.333 9.333 0 1 0 0-18.666 9.333 9.333 0 1 0 0 18.666z"/></symbol><symbol id="icon-dislike"><path d="M2.787 17.889a1.34 1.34 0 0 0 .348 1.014 1.33 1.33 0 0 0 .982.43h2.55a1.335 1.335 0 0 0 1.334-1.334V4.666a1.334 1.334 0 0 0-1.334-1.334h-1.44a1.336 1.336 0 0 0-1.329 1.222L2.787 17.887h-.001zM12 17.75c0 .557.347 1.056.85 1.293 1.099.519 2.972 1.561 3.817 2.969 1.089 1.816 1.294 5.097 1.327 5.848.005.105.002.211.016.315.181 1.302 2.693-.219 3.657-1.827.523-.872.59-2.018.535-2.913-.059-.957-.34-1.882-.615-2.801L21 18.676h7.238a1.319 1.319 0 0 0 1.063-.528 1.332 1.332 0 0 0 .22-1.167l-3.58-12.677a1.33 1.33 0 0 0-1.284-.971H13.333A1.33 1.33 0 0 0 12 4.667V17.75z"/></symbol><symbol id="icon-Facebook"><path d="M23.999 10.362h-5.903V7.041c0-1.247.964-1.538 1.642-1.538h4.166V.02L18.167.001c-6.369 0-7.818 4.09-7.818 6.707v3.655H6.666v5.65h3.683v15.988h7.747V16.013h5.227l.676-5.65z"/></symbol><symbol id="icon-hand-focus"><path style="fill:var(--color2,#fff)" d="m10 16-2.672 3.563a2.667 2.667 0 0 0 .168 3.403l5.045 5.504a2.66 2.66 0 0 0 1.964.864h6.161c3.2 0 5.333-2.667 5.333-5.333V12.573zm12-2.667v-.761c0-3.048 4-3.048 4 0z"/><path stroke="#000" style="stroke:var(--color3,#000)" stroke-linejoin="round" stroke-linecap="round" d="m10 16-2.672 3.563a2.667 2.667 0 0 0 .168 3.403l5.045 5.504a2.66 2.66 0 0 0 1.964.864h6.161c3.2 0 5.333-2.667 5.333-5.333V12.573m-3.999.76v-.761c0-3.048 4-3.048 4 0"/><path style="fill:var(--color2,#fff)" d="M18 13.333v-2.285c0-3.048 4-3.048 4 0v2.285zm-4 0V10c0-3.048 4-3.048 4 0v3.333zm0 0V4.665a1.997 1.997 0 0 0-2-1.998 2 2 0 0 0-2 2V20z"/><path stroke="#000" style="stroke:var(--color3,#000)" stroke-linejoin="round" stroke-linecap="round" d="M18 13.333v-2.285c0-3.048 4-3.048 4 0v2.285m-8 0V10c0-3.048 4-3.048 4 0v3.333m-4 0V4.665a1.997 1.997 0 0 0-2-1.998 2 2 0 0 0-2 2V20"/></symbol><symbol id="icon-like"><path stroke-linejoin="round" stroke-linecap="round" stroke-width="2.667" d="M2.787 14.111a1.34 1.34 0 0 1 .348-1.014 1.33 1.33 0 0 1 .982-.43h2.55a1.335 1.335 0 0 1 1.334 1.334v13.333a1.334 1.334 0 0 1-1.334 1.334h-1.44a1.336 1.336 0 0 1-1.329-1.222L2.787 14.113h-.001zM12 14.25c0-.557.347-1.056.85-1.293 1.099-.519 2.972-1.561 3.817-2.969 1.089-1.816 1.294-5.097 1.327-5.848.005-.105.002-.211.016-.315.181-1.302 2.693.219 3.657 1.827.523.872.59 2.018.535 2.913-.059.957-.34 1.882-.615 2.801L21 13.324h7.238a1.319 1.319 0 0 1 1.063.528 1.332 1.332 0 0 1 .22 1.167l-3.58 12.677a1.33 1.33 0 0 1-1.284.971H13.333A1.33 1.33 0 0 1 12 27.333V14.25z"/></symbol></defs></svg>