<svg aria-hidden="true" style="width:0;height:0;position:absolute;overflow:hidden" xmlns="http://www.w3.org/2000/svg"><defs><symbol id="icon-Vector-22"><path d="M2.787 14.111a1.34 1.34 0 0 1 .348-1.014 1.33 1.33 0 0 1 .982-.43h2.55a1.335 1.335 0 0 1 1.334 1.334v13.333a1.334 1.334 0 0 1-1.334 1.334h-1.44a1.336 1.336 0 0 1-1.329-1.222L2.787 14.113h-.001zM12 14.25c0-.557.347-1.056.85-1.293 1.099-.519 2.972-1.561 3.817-2.969 1.089-1.816 1.294-5.097 1.327-5.848.005-.105.002-.211.016-.315.181-1.302 2.693.219 3.657 1.827.523.872.59 2.018.535 2.913-.059.957-.34 1.882-.615 2.801L21 13.324h7.238a1.319 1.319 0 0 1 1.063.528 1.332 1.332 0 0 1 .22 1.167l-3.58 12.677a1.33 1.33 0 0 1-1.284.971H13.333A1.33 1.33 0 0 1 12 27.333V14.25z"/></symbol><symbol id="icon-Vector-21" viewBox="0 0 577 32"><path d="M2.787 14.111a1.34 1.34 0 0 1 .348-1.014 1.33 1.33 0 0 1 .982-.43h2.55a1.335 1.335 0 0 1 1.334 1.334v13.333a1.334 1.334 0 0 1-1.334 1.334h-1.44a1.336 1.336 0 0 1-1.329-1.222L2.787 14.113h-.001zM12 14.25c0-.557.347-1.056.85-1.293 1.099-.519 2.972-1.561 3.817-2.969 1.089-1.816 1.294-5.097 1.327-5.848.005-.105.002-.211.016-.315.181-1.302 2.693.219 3.657 1.827.523.872.59 2.018.535 2.913-.059.957-.34 1.882-.615 2.801L21 13.324h7.238a1.319 1.319 0 0 1 1.063.528 1.332 1.332 0 0 1 .22 1.167l-3.58 12.677a1.33 1.33 0 0 1-1.284.971H13.333A1.33 1.33 0 0 1 12 27.333V14.25z"/></symbol><symbol id="icon-dislike"><path d="M2.787 17.889a1.34 1.34 0 0 0 .348 1.014 1.33 1.33 0 0 0 .982.43h2.55a1.335 1.335 0 0 0 1.334-1.334V4.666a1.334 1.334 0 0 0-1.334-1.334h-1.44a1.336 1.336 0 0 0-1.329 1.222L2.787 17.887h-.001zM12 17.75c0 .557.347 1.056.85 1.293 1.099.519 2.972 1.561 3.817 2.969 1.089 1.816 1.294 5.097 1.327 5.848.005.105.002.211.016.315.181 1.302 2.693-.219 3.657-1.827.523-.872.59-2.018.535-2.913-.059-.957-.34-1.882-.615-2.801L21 18.676h7.238a1.319 1.319 0 0 0 1.063-.528 1.332 1.332 0 0 0 .22-1.167l-3.58-12.677a1.33 1.33 0 0 0-1.284-.971H13.333A1.33 1.33 0 0 0 12 4.667V17.75z"/></symbol><symbol id="icon-hand-focus"><path style="fill:var(--color2,#fff)" d="m10 16-2.672 3.563a2.667 2.667 0 0 0 .168 3.403l5.045 5.504a2.66 2.66 0 0 0 1.964.864h6.161c3.2 0 5.333-2.667 5.333-5.333V12.573zm12-2.667v-.761c0-3.048 4-3.048 4 0z"/><path stroke="#000" style="stroke:var(--color3,#000)" stroke-linejoin="round" stroke-linecap="round" d="m10 16-2.672 3.563a2.667 2.667 0 0 0 .168 3.403l5.045 5.504a2.66 2.66 0 0 0 1.964.864h6.161c3.2 0 5.333-2.667 5.333-5.333V12.573m-3.999.76v-.761c0-3.048 4-3.048 4 0"/><path style="fill:var(--color2,#fff)" d="M18 13.333v-2.285c0-3.048 4-3.048 4 0v2.285zm-4 0V10c0-3.048 4-3.048 4 0v3.333zm0 0V4.665a1.997 1.997 0 0 0-2-1.998 2 2 0 0 0-2 2V20z"/><path stroke="#000" style="stroke:var(--color3,#000)" stroke-linejoin="round" stroke-linecap="round" d="M18 13.333v-2.285c0-3.048 4-3.048 4 0v2.285m-8 0V10c0-3.048 4-3.048 4 0v3.333m-4 0V4.665a1.997 1.997 0 0 0-2-1.998 2 2 0 0 0-2 2V20"/></symbol><symbol id="icon-like"><path stroke-linejoin="round" stroke-linecap="round" stroke-width="2.667" d="M2.787 14.111a1.34 1.34 0 0 1 .348-1.014 1.33 1.33 0 0 1 .982-.43h2.55a1.335 1.335 0 0 1 1.334 1.334v13.333a1.334 1.334 0 0 1-1.334 1.334h-1.44a1.336 1.336 0 0 1-1.329-1.222L2.787 14.113h-.001zM12 14.25c0-.557.347-1.056.85-1.293 1.099-.519 2.972-1.561 3.817-2.969 1.089-1.816 1.294-5.097 1.327-5.848.005-.105.002-.211.016-.315.181-1.302 2.693.219 3.657 1.827.523.872.59 2.018.535 2.913-.059.957-.34 1.882-.615 2.801L21 13.324h7.238a1.319 1.319 0 0 1 1.063.528 1.332 1.332 0 0 1 .22 1.167l-3.58 12.677a1.33 1.33 0 0 1-1.284.971H13.333A1.33 1.33 0 0 1 12 27.333V14.25z"/><symbol id="icon-Group-1716" viewBox="0 0 32 32"><path d="M32 2a2 2 0 1 1-3.999.001A2 2 0 0 1 32 2zM16 30C8.268 30 2 23.732 2 16S8.268 2 16 2s14 6.268 14 14-6.268 14-14 14zm0-4.667a9.333 9.333 0 1 0 0-18.666 9.333 9.333 0 1 0 0 18.666z"/></symbol><symbol id="icon-Facebook" viewBox="0 0 32 32"><path d="M24 10.363h-5.904V7.04c0-1.248.963-1.539 1.643-1.539h4.165V.018l-5.739-.019c-6.368 0-7.816 4.091-7.816 6.707v3.653H6.666v5.653h3.68v15.987h7.749V16.01h5.227l.677-5.648z"/></symbol><symbol id="icon-Youtube" viewBox="0 0 32 32"><path d="M28.501 5.973c1.379.349 2.461 1.387 2.829 2.701.669 2.384.669 7.36.669 7.36s0 4.973-.667 7.357c-.371 1.315-1.453 2.307-2.832 2.659-2.496.64-12.501.64-12.501.64s-10.005 0-12.501-.64c-1.379-.352-2.461-1.344-2.832-2.659-.667-2.384-.667-7.36-.667-7.36s0-4.973.667-7.357a3.937 3.937 0 0 1 2.808-2.696l.027-.006C5.994 5.332 16 5.332 16 5.332s10.005 0 12.501.64zm-15.773 5.544v9.032l8.363-4.517-8.363-4.512z"/></symbol></symbol></defs></svg>