<svg aria-hidden="true" style="position: absolute; width: 0; height: 0; overflow: hidden;" version="1.1" xmlns="http://www.w3.org/2000/svg" xmlns:xlink="http://www.w3.org/1999/xlink">
<defs>
<symbol id="icon-Vector-22">
<path d="M2.787 14.111c-0.015-0.184 0.008-0.369 0.068-0.544s0.155-0.335 0.28-0.47c0.125-0.136 0.277-0.244 0.446-0.318s0.352-0.112 0.536-0.112h2.55c0.354 0 0.693 0.14 0.943 0.391s0.391 0.589 0.391 0.943v13.333c0 0.354-0.141 0.693-0.391 0.943s-0.589 0.391-0.943 0.391h-1.44c-0.334 0-0.657-0.126-0.903-0.352s-0.398-0.537-0.426-0.87l-1.111-13.333h-0.001zM12 14.25c0-0.557 0.347-1.056 0.85-1.293 1.099-0.519 2.972-1.561 3.817-2.969 1.089-1.816 1.294-5.097 1.327-5.848 0.005-0.105 0.002-0.211 0.016-0.315 0.181-1.302 2.693 0.219 3.657 1.827 0.523 0.872 0.59 2.018 0.535 2.913-0.059 0.957-0.34 1.882-0.615 2.801l-0.587 1.958h7.238c0.206 0 0.409 0.048 0.594 0.139s0.345 0.225 0.469 0.389 0.209 0.355 0.247 0.558c0.038 0.202 0.029 0.411-0.027 0.609l-3.58 12.677c-0.079 0.28-0.247 0.526-0.479 0.701s-0.514 0.27-0.805 0.27h-11.324c-0.354 0-0.693-0.14-0.943-0.391s-0.39-0.589-0.39-0.943v-13.083z"></path>
</symbol>
<symbol id="icon-Vector-21" viewBox="0 0 577 32">
<path  d="M2.787 14.111c-0.015-0.184 0.008-0.369 0.068-0.544s0.155-0.335 0.28-0.47c0.125-0.136 0.277-0.244 0.446-0.318s0.352-0.112 0.536-0.112h2.55c0.354 0 0.693 0.14 0.943 0.391s0.391 0.589 0.391 0.943v13.333c0 0.354-0.141 0.693-0.391 0.943s-0.589 0.391-0.943 0.391h-1.44c-0.334 0-0.657-0.126-0.903-0.352s-0.398-0.537-0.426-0.87l-1.111-13.333h-0.001zM12 14.25c0-0.557 0.347-1.056 0.85-1.293 1.099-0.519 2.972-1.561 3.817-2.969 1.089-1.816 1.294-5.097 1.327-5.848 0.005-0.105 0.002-0.211 0.016-0.315 0.181-1.302 2.693 0.219 3.657 1.827 0.523 0.872 0.59 2.018 0.535 2.913-0.059 0.957-0.34 1.882-0.615 2.801l-0.587 1.958h7.238c0.206 0 0.409 0.048 0.594 0.139s0.345 0.225 0.469 0.389 0.209 0.355 0.247 0.558c0.038 0.202 0.029 0.411-0.027 0.609l-3.58 12.677c-0.079 0.28-0.247 0.526-0.479 0.701s-0.514 0.27-0.805 0.27h-11.324c-0.354 0-0.693-0.14-0.943-0.391s-0.39-0.589-0.39-0.943v-13.083z"></path>
</symbol>
<symbol id="icon-dislike" >
<path   d="M2.787 17.889c-0.015 0.184 0.008 0.369 0.068 0.544s0.155 0.335 0.28 0.47c0.125 0.136 0.277 0.244 0.446 0.318s0.352 0.112 0.536 0.112h2.55c0.354 0 0.693-0.14 0.943-0.391s0.391-0.589 0.391-0.943v-13.333c0-0.354-0.141-0.693-0.391-0.943s-0.589-0.391-0.943-0.391h-1.44c-0.334 0-0.657 0.126-0.903 0.352s-0.398 0.537-0.426 0.87l-1.111 13.333h-0.001zM12 17.75c0 0.557 0.347 1.056 0.85 1.293 1.099 0.519 2.972 1.561 3.817 2.969 1.089 1.816 1.294 5.097 1.327 5.848 0.005 0.105 0.002 0.211 0.016 0.315 0.181 1.302 2.693-0.219 3.657-1.827 0.523-0.872 0.59-2.018 0.535-2.913-0.059-0.957-0.34-1.882-0.615-2.801l-0.587-1.958h7.238c0.206 0 0.409-0.048 0.594-0.139s0.345-0.225 0.469-0.389 0.209-0.355 0.247-0.558c0.038-0.202 0.029-0.411-0.027-0.609l-3.58-12.677c-0.079-0.28-0.247-0.526-0.479-0.701s-0.514-0.27-0.805-0.27h-11.324c-0.354 0-0.693 0.14-0.943 0.391s-0.39 0.589-0.39 0.943v13.083z"></path>
</symbol>
<symbol id="icon-hand-focus">
<path  style="fill: var(--color2, #fff)" d="M10 16l-2.672 3.563c-0.373 0.498-0.561 1.11-0.53 1.732s0.278 1.213 0.698 1.671l5.045 5.504c0.504 0.551 1.216 0.864 1.964 0.864h6.161c3.2 0 5.333-2.667 5.333-5.333v-11.428zM22 13.333v-0.761c0-3.048 4-3.048 4 0z"></path>
<path  stroke="#000" style="stroke: var(--color3, #000)" stroke-linejoin="round" stroke-linecap="round" stroke-miterlimit="4" stroke-width="1" d="M10 16l-2.672 3.563c-0.373 0.498-0.561 1.11-0.53 1.732s0.278 1.213 0.698 1.671l5.045 5.504c0.504 0.551 1.216 0.864 1.964 0.864h6.161c3.2 0 5.333-2.667 5.333-5.333v-11.428M22 13.333v-0.761c0-3.048 4-3.048 4 0"></path>
<path  style="fill: var(--color2, #fff)" d="M18 13.333v-2.285c0-3.048 4-3.048 4 0v2.285zM14 13.333v-3.333c0-3.048 4-3.048 4 0v3.333zM14 13.333v-8.668c-0-0.53-0.211-1.039-0.586-1.413s-0.884-0.585-1.414-0.585c-0.53 0-1.039 0.211-1.414 0.586s-0.586 0.884-0.586 1.414v15.333z"></path>
<path  stroke="#000" style="stroke: var(--color3, #000)" stroke-linejoin="round" stroke-linecap="round" stroke-miterlimit="4" stroke-width="1" d="M18 13.333v-2.285c0-3.048 4-3.048 4 0v2.285M14 13.333v-3.333c0-3.048 4-3.048 4 0v3.333M14 13.333v-8.668c-0-0.53-0.211-1.039-0.586-1.413s-0.884-0.585-1.414-0.585c-0.53 0-1.039 0.211-1.414 0.586s-0.586 0.884-0.586 1.414v15.333"></path>
</symbol>
<symbol id="icon-like" >
<path stroke-linejoin="round" stroke-linecap="round" stroke-miterlimit="4" stroke-width="2.6667" d="M2.787 14.111c-0.015-0.184 0.008-0.369 0.068-0.544s0.155-0.335 0.28-0.47c0.125-0.136 0.277-0.244 0.446-0.318s0.352-0.112 0.536-0.112h2.55c0.354 0 0.693 0.14 0.943 0.391s0.391 0.589 0.391 0.943v13.333c0 0.354-0.141 0.693-0.391 0.943s-0.589 0.391-0.943 0.391h-1.44c-0.334 0-0.657-0.126-0.903-0.352s-0.398-0.537-0.426-0.87l-1.111-13.333h-0.001zM12 14.25c0-0.557 0.347-1.056 0.85-1.293 1.099-0.519 2.972-1.561 3.817-2.969 1.089-1.816 1.294-5.097 1.327-5.848 0.005-0.105 0.002-0.211 0.016-0.315 0.181-1.302 2.693 0.219 3.657 1.827 0.523 0.872 0.59 2.018 0.535 2.913-0.059 0.957-0.34 1.882-0.615 2.801l-0.587 1.958h7.238c0.206 0 0.409 0.048 0.594 0.139s0.345 0.225 0.469 0.389 0.209 0.355 0.247 0.558c0.038 0.202 0.029 0.411-0.027 0.609l-3.58 12.677c-0.079 0.28-0.247 0.526-0.479 0.701s-0.514 0.27-0.805 0.27h-11.324c-0.354 0-0.693-0.14-0.943-0.391s-0.39-0.589-0.39-0.943v-13.083z"></path>
<symbol id="icon-Group-1716" viewBox="0 0 32 32"><path d="M32 2a2 2 0 1 1-3.999.001A2 2 0 0 1 32 2zM16 30C8.268 30 2 23.732 2 16S8.268 2 16 2s14 6.268 14 14-6.268 14-14 14zm0-4.667a9.333 9.333 0 1 0 0-18.666 9.333 9.333 0 1 0 0 18.666z"/></symbol><symbol id="icon-Facebook" viewBox="0 0 32 32"><path d="M24 10.363h-5.904V7.04c0-1.248.963-1.539 1.643-1.539h4.165V.018l-5.739-.019c-6.368 0-7.816 4.091-7.816 6.707v3.653H6.666v5.653h3.68v15.987h7.749V16.01h5.227l.677-5.648z"/></symbol><symbol id="icon-Youtube" viewBox="0 0 32 32"><path d="M28.501 5.973c1.379.349 2.461 1.387 2.829 2.701.669 2.384.669 7.36.669 7.36s0 4.973-.667 7.357c-.371 1.315-1.453 2.307-2.832 2.659-2.496.64-12.501.64-12.501.64s-10.005 0-12.501-.64c-1.379-.352-2.461-1.344-2.832-2.659-.667-2.384-.667-7.36-.667-7.36s0-4.973.667-7.357a3.937 3.937 0 0 1 2.808-2.696l.027-.006C5.994 5.332 16 5.332 16 5.332s10.005 0 12.501.64zm-15.773 5.544v9.032l8.363-4.517-8.363-4.512z"/></symbol>
</symbol>
</defs>
</svg>
