<svg aria-hidden="true" style="position: absolute; width: 0; height: 0; overflow: hidden;" version="1.1" xmlns="http://www.w3.org/2000/svg" xmlns:xlink="http://www.w3.org/1999/xlink">
<defs>
<symbol id="icon-Vector-22">
<path d="M2.787 14.111c-0.015-0.184 0.008-0.369 0.068-0.544s0.155-0.335 0.28-0.47c0.125-0.136 0.277-0.244 0.446-0.318s0.352-0.112 0.536-0.112h2.55c0.354 0 0.693 0.14 0.943 0.391s0.391 0.589 0.391 0.943v13.333c0 0.354-0.141 0.693-0.391 0.943s-0.589 0.391-0.943 0.391h-1.44c-0.334 0-0.657-0.126-0.903-0.352s-0.398-0.537-0.426-0.87l-1.111-13.333h-0.001zM12 14.25c0-0.557 0.347-1.056 0.85-1.293 1.099-0.519 2.972-1.561 3.817-2.969 1.089-1.816 1.294-5.097 1.327-5.848 0.005-0.105 0.002-0.211 0.016-0.315 0.181-1.302 2.693 0.219 3.657 1.827 0.523 0.872 0.59 2.018 0.535 2.913-0.059 0.957-0.34 1.882-0.615 2.801l-0.587 1.958h7.238c0.206 0 0.409 0.048 0.594 0.139s0.345 0.225 0.469 0.389 0.209 0.355 0.247 0.558c0.038 0.202 0.029 0.411-0.027 0.609l-3.58 12.677c-0.079 0.28-0.247 0.526-0.479 0.701s-0.514 0.27-0.805 0.27h-11.324c-0.354 0-0.693-0.14-0.943-0.391s-0.39-0.589-0.39-0.943v-13.083z"></path>
</symbol>
<symbol id="icon-Vector-21" viewBox="0 0 577 32">
<path  d="M2.787 14.111c-0.015-0.184 0.008-0.369 0.068-0.544s0.155-0.335 0.28-0.47c0.125-0.136 0.277-0.244 0.446-0.318s0.352-0.112 0.536-0.112h2.55c0.354 0 0.693 0.14 0.943 0.391s0.391 0.589 0.391 0.943v13.333c0 0.354-0.141 0.693-0.391 0.943s-0.589 0.391-0.943 0.391h-1.44c-0.334 0-0.657-0.126-0.903-0.352s-0.398-0.537-0.426-0.87l-1.111-13.333h-0.001zM12 14.25c0-0.557 0.347-1.056 0.85-1.293 1.099-0.519 2.972-1.561 3.817-2.969 1.089-1.816 1.294-5.097 1.327-5.848 0.005-0.105 0.002-0.211 0.016-0.315 0.181-1.302 2.693 0.219 3.657 1.827 0.523 0.872 0.59 2.018 0.535 2.913-0.059 0.957-0.34 1.882-0.615 2.801l-0.587 1.958h7.238c0.206 0 0.409 0.048 0.594 0.139s0.345 0.225 0.469 0.389 0.209 0.355 0.247 0.558c0.038 0.202 0.029 0.411-0.027 0.609l-3.58 12.677c-0.079 0.28-0.247 0.526-0.479 0.701s-0.514 0.27-0.805 0.27h-11.324c-0.354 0-0.693-0.14-0.943-0.391s-0.39-0.589-0.39-0.943v-13.083z"></path>
</symbol>
<symbol id="icon-Youtube" >
<path d="M28.502 5.972c1.377 0.352 2.461 1.388 2.829 2.703 0.669 2.384 0.669 7.358 0.669 7.358s0 4.974-0.669 7.358c-0.368 1.315-1.452 2.308-2.829 2.66-2.495 0.639-12.502 0.639-12.502 0.639s-10.007 0-12.502-0.639c-1.377-0.352-2.461-1.344-2.829-2.66-0.669-2.384-0.669-7.358-0.669-7.358s0-4.974 0.669-7.358c0.368-1.315 1.452-2.351 2.829-2.703 2.496-0.639 12.502-0.639 12.502-0.639s10.007 0 12.502 0.639zM12.728 11.517v9.032l8.364-4.516-8.364-4.516z"></path>
</symbol>
<symbol id="icon-Group-1716" >
<path d="M32 2c0 1.105-0.895 2-2 2s-2-0.895-2-2c0-1.105 0.895-2 2-2s2 0.895 2 2z"></path>
<path d="M16 30c-7.732 0-14-6.268-14-14s6.268-14 14-14c7.732 0 14 6.268 14 14s-6.268 14-14 14zM16.001 25.333c5.155 0 9.333-4.179 9.333-9.333s-4.179-9.333-9.333-9.333c-5.155 0-9.333 4.179-9.333 9.333s4.179 9.333 9.333 9.333z"></path>
</symbol>
<symbol id="icon-dislike" >
<path   d="M2.787 17.889c-0.015 0.184 0.008 0.369 0.068 0.544s0.155 0.335 0.28 0.47c0.125 0.136 0.277 0.244 0.446 0.318s0.352 0.112 0.536 0.112h2.55c0.354 0 0.693-0.14 0.943-0.391s0.391-0.589 0.391-0.943v-13.333c0-0.354-0.141-0.693-0.391-0.943s-0.589-0.391-0.943-0.391h-1.44c-0.334 0-0.657 0.126-0.903 0.352s-0.398 0.537-0.426 0.87l-1.111 13.333h-0.001zM12 17.75c0 0.557 0.347 1.056 0.85 1.293 1.099 0.519 2.972 1.561 3.817 2.969 1.089 1.816 1.294 5.097 1.327 5.848 0.005 0.105 0.002 0.211 0.016 0.315 0.181 1.302 2.693-0.219 3.657-1.827 0.523-0.872 0.59-2.018 0.535-2.913-0.059-0.957-0.34-1.882-0.615-2.801l-0.587-1.958h7.238c0.206 0 0.409-0.048 0.594-0.139s0.345-0.225 0.469-0.389 0.209-0.355 0.247-0.558c0.038-0.202 0.029-0.411-0.027-0.609l-3.58-12.677c-0.079-0.28-0.247-0.526-0.479-0.701s-0.514-0.27-0.805-0.27h-11.324c-0.354 0-0.693 0.14-0.943 0.391s-0.39 0.589-0.39 0.943v13.083z"></path>
</symbol>
<symbol id="icon-Facebook" >
<path d="M23.999 10.362h-5.903v-3.321c0-1.247 0.964-1.538 1.642-1.538 0.677 0 4.166 0 4.166 0v-5.483l-5.737-0.019c-6.369 0-7.818 4.090-7.818 6.707v3.655h-3.683v5.65h3.683c0 7.251 0 15.988 0 15.988h7.747c0 0 0-8.823 0-15.988h5.227l0.676-5.65z"></path>
</symbol>
<symbol id="icon-hand-focus">
<path  style="fill: var(--color2, #fff)" d="M10 16l-2.672 3.563c-0.373 0.498-0.561 1.11-0.53 1.732s0.278 1.213 0.698 1.671l5.045 5.504c0.504 0.551 1.216 0.864 1.964 0.864h6.161c3.2 0 5.333-2.667 5.333-5.333v-11.428zM22 13.333v-0.761c0-3.048 4-3.048 4 0z"></path>
<path  stroke="#000" style="stroke: var(--color3, #000)" stroke-linejoin="round" stroke-linecap="round" stroke-miterlimit="4" stroke-width="1" d="M10 16l-2.672 3.563c-0.373 0.498-0.561 1.11-0.53 1.732s0.278 1.213 0.698 1.671l5.045 5.504c0.504 0.551 1.216 0.864 1.964 0.864h6.161c3.2 0 5.333-2.667 5.333-5.333v-11.428M22 13.333v-0.761c0-3.048 4-3.048 4 0"></path>
<path  style="fill: var(--color2, #fff)" d="M18 13.333v-2.285c0-3.048 4-3.048 4 0v2.285zM14 13.333v-3.333c0-3.048 4-3.048 4 0v3.333zM14 13.333v-8.668c-0-0.53-0.211-1.039-0.586-1.413s-0.884-0.585-1.414-0.585c-0.53 0-1.039 0.211-1.414 0.586s-0.586 0.884-0.586 1.414v15.333z"></path>
<path  stroke="#000" style="stroke: var(--color3, #000)" stroke-linejoin="round" stroke-linecap="round" stroke-miterlimit="4" stroke-width="1" d="M18 13.333v-2.285c0-3.048 4-3.048 4 0v2.285M14 13.333v-3.333c0-3.048 4-3.048 4 0v3.333M14 13.333v-8.668c-0-0.53-0.211-1.039-0.586-1.413s-0.884-0.585-1.414-0.585c-0.53 0-1.039 0.211-1.414 0.586s-0.586 0.884-0.586 1.414v15.333"></path>
</symbol>
<symbol id="icon-like" >
<path stroke-linejoin="round" stroke-linecap="round" stroke-miterlimit="4" stroke-width="2.6667" d="M2.787 14.111c-0.015-0.184 0.008-0.369 0.068-0.544s0.155-0.335 0.28-0.47c0.125-0.136 0.277-0.244 0.446-0.318s0.352-0.112 0.536-0.112h2.55c0.354 0 0.693 0.14 0.943 0.391s0.391 0.589 0.391 0.943v13.333c0 0.354-0.141 0.693-0.391 0.943s-0.589 0.391-0.943 0.391h-1.44c-0.334 0-0.657-0.126-0.903-0.352s-0.398-0.537-0.426-0.87l-1.111-13.333h-0.001zM12 14.25c0-0.557 0.347-1.056 0.85-1.293 1.099-0.519 2.972-1.561 3.817-2.969 1.089-1.816 1.294-5.097 1.327-5.848 0.005-0.105 0.002-0.211 0.016-0.315 0.181-1.302 2.693 0.219 3.657 1.827 0.523 0.872 0.59 2.018 0.535 2.913-0.059 0.957-0.34 1.882-0.615 2.801l-0.587 1.958h7.238c0.206 0 0.409 0.048 0.594 0.139s0.345 0.225 0.469 0.389 0.209 0.355 0.247 0.558c0.038 0.202 0.029 0.411-0.027 0.609l-3.58 12.677c-0.079 0.28-0.247 0.526-0.479 0.701s-0.514 0.27-0.805 0.27h-11.324c-0.354 0-0.693-0.14-0.943-0.391s-0.39-0.589-0.39-0.943v-13.083z"></path>
</symbol>
</defs>
</svg>
